<svg xmlns="http://www.w3.org/2000/svg" viewBox="0 0 72 72" role="img" aria-labelledby="favicon-title favicon-desc">
  <title id="favicon-title">TermoCerteiro favicon</title>
  <desc id="favicon-desc">Símbolo do TermoCerteiro com grade inspirada em Wordle e um check de acerto.</desc>
  <defs>
    <linearGradient id="favicon-bg" x1="13" y1="8" x2="58" y2="64" gradientUnits="userSpaceOnUse">
      <stop offset="0" stop-color="#111827" />
      <stop offset="1" stop-color="#0f172a" />
    </linearGradient>
    <linearGradient id="favicon-green" x1="22" y1="19" x2="54" y2="52" gradientUnits="userSpaceOnUse">
      <stop offset="0" stop-color="#34d399" />
      <stop offset="1" stop-color="#14b8a6" />
    </linearGradient>
    <linearGradient id="favicon-yellow" x1="30" y1="15" x2="41" y2="28" gradientUnits="userSpaceOnUse">
      <stop offset="0" stop-color="#fde047" />
      <stop offset="1" stop-color="#f59e0b" />
    </linearGradient>
  </defs>

  <rect x="4" y="4" width="64" height="64" rx="22" fill="url(#favicon-bg)" />
  <rect x="4" y="4" width="64" height="64" rx="22" fill="none" stroke="#334155" stroke-width="1.5" />
  <rect x="12" y="12" width="48" height="48" rx="16" fill="none" stroke="rgba(255,255,255,0.07)" />

  <rect x="15" y="16" width="12" height="12" rx="4" fill="#1f2937" stroke="#475569" stroke-width="1.2" />
  <rect x="30" y="16" width="12" height="12" rx="4" fill="url(#favicon-yellow)" stroke="#fcd34d" stroke-width="1.2" />
  <rect x="45" y="16" width="12" height="12" rx="4" fill="#1f2937" stroke="#475569" stroke-width="1.2" />
  <rect x="15" y="31" width="12" height="12" rx="4" fill="#1f2937" stroke="#475569" stroke-width="1.2" />
  <rect x="30" y="31" width="12" height="12" rx="4" fill="url(#favicon-green)" stroke="#99f6e4" stroke-width="1.2" />
  <rect x="45" y="31" width="12" height="12" rx="4" fill="#1f2937" stroke="#475569" stroke-width="1.2" />

  <path
    d="M20 46.5 28.5 55 50.5 33"
    fill="none"
    stroke="url(#favicon-green)"
    stroke-linecap="round"
    stroke-linejoin="round"
    stroke-width="6"
  />
  <path
    d="M20 46.5 28.5 55 50.5 33"
    fill="none"
    stroke="#ecfeff"
    stroke-linecap="round"
    stroke-linejoin="round"
    stroke-width="2.6"
  />
</svg>
