<svg width="1200" height="630" viewBox="0 0 1200 630" fill="none" xmlns="http://www.w3.org/2000/svg">
  <defs>
    <linearGradient id="card-bg" x1="96" y1="54" x2="1113" y2="584" gradientUnits="userSpaceOnUse">
      <stop stop-color="#0f172a"/>
      <stop offset="1" stop-color="#18181b"/>
    </linearGradient>
    <linearGradient id="card-glow" x1="880" y1="74" x2="1096" y2="300" gradientUnits="userSpaceOnUse">
      <stop stop-color="#34d399" stop-opacity="0.92"/>
      <stop offset="1" stop-color="#14b8a6" stop-opacity="0.18"/>
    </linearGradient>
    <linearGradient id="mark-bg" x1="13" y1="8" x2="58" y2="64" gradientUnits="userSpaceOnUse">
      <stop offset="0" stop-color="#111827" />
      <stop offset="1" stop-color="#0f172a" />
    </linearGradient>
    <linearGradient id="mark-green" x1="22" y1="19" x2="54" y2="52" gradientUnits="userSpaceOnUse">
      <stop offset="0" stop-color="#34d399" />
      <stop offset="1" stop-color="#14b8a6" />
    </linearGradient>
    <linearGradient id="mark-yellow" x1="30" y1="15" x2="41" y2="28" gradientUnits="userSpaceOnUse">
      <stop offset="0" stop-color="#fde047" />
      <stop offset="1" stop-color="#f59e0b" />
    </linearGradient>
    <linearGradient id="wordmark-green" x1="322" y1="138" x2="612" y2="226" gradientUnits="userSpaceOnUse">
      <stop offset="0" stop-color="#34d399" />
      <stop offset="1" stop-color="#14b8a6" />
    </linearGradient>
    <filter id="panel-shadow" x="0" y="0" width="1200" height="630" filterUnits="userSpaceOnUse" color-interpolation-filters="sRGB">
      <feFlood flood-opacity="0" result="BackgroundImageFix"/>
      <feGaussianBlur in="SourceAlpha" stdDeviation="12"/>
      <feOffset dy="16"/>
      <feColorMatrix type="matrix" values="0 0 0 0 0.00784314 0 0 0 0 0.0627451 0 0 0 0 0.133333 0 0 0 0.35 0"/>
      <feBlend mode="normal" in2="BackgroundImageFix" result="effect1_dropShadow_0_1"/>
      <feBlend mode="normal" in="SourceGraphic" in2="effect1_dropShadow_0_1" result="shape"/>
    </filter>
  </defs>

  <rect width="1200" height="630" rx="36" fill="url(#card-bg)"/>
  <circle cx="962" cy="178" r="170" fill="url(#card-glow)"/>
  <circle cx="1094" cy="522" r="106" fill="#22c55e" fill-opacity="0.10"/>
  <circle cx="82" cy="548" r="120" fill="#facc15" fill-opacity="0.08"/>
  <path d="M62 84H1138" stroke="#27272a"/>
  <path d="M62 548H1138" stroke="#27272a"/>
  <path d="M90 54V576" stroke="#27272a"/>
  <path d="M1110 54V576" stroke="#27272a"/>

  <rect x="56" y="52" width="1088" height="526" rx="30" fill="#09090b" fill-opacity="0.22" stroke="#27272a"/>

  <text x="92" y="112" fill="#94a3b8" font-family="Arial, Helvetica, sans-serif" font-size="20" font-weight="700" letter-spacing="5">
    TERMOCERTEIRO.COM.BR
  </text>

  <g transform="translate(92 142)">
    <rect x="4" y="4" width="84" height="84" rx="28" fill="url(#mark-bg)" />
    <rect x="4" y="4" width="84" height="84" rx="28" fill="none" stroke="#334155" stroke-width="1.8" />
    <rect x="14.5" y="14.5" width="63" height="63" rx="22" fill="none" stroke="rgba(255,255,255,0.08)" />

    <rect x="18.5" y="20" width="16" height="16" rx="5" fill="#1f2937" stroke="#475569" stroke-width="1.5" />
    <rect x="38" y="20" width="16" height="16" rx="5" fill="url(#mark-yellow)" stroke="#fcd34d" stroke-width="1.5" />
    <rect x="57.5" y="20" width="16" height="16" rx="5" fill="#1f2937" stroke="#475569" stroke-width="1.5" />
    <rect x="18.5" y="39.5" width="16" height="16" rx="5" fill="#1f2937" stroke="#475569" stroke-width="1.5" />
    <rect x="38" y="39.5" width="16" height="16" rx="5" fill="url(#mark-green)" stroke="#99f6e4" stroke-width="1.5" />
    <rect x="57.5" y="39.5" width="16" height="16" rx="5" fill="#1f2937" stroke="#475569" stroke-width="1.5" />

    <path
      d="M25 60 36 71 65 42"
      fill="none"
      stroke="url(#mark-green)"
      stroke-linecap="round"
      stroke-linejoin="round"
      stroke-width="8"
    />
    <path
      d="M25 60 36 71 65 42"
      fill="none"
      stroke="#ecfeff"
      stroke-linecap="round"
      stroke-linejoin="round"
      stroke-width="3.2"
    />
  </g>

  <text x="198" y="218" fill="#fafafa" font-family="Arial, Helvetica, sans-serif" font-size="78" font-weight="800">
    Termo
  </text>
  <text x="456" y="218" fill="url(#wordmark-green)" font-family="Arial, Helvetica, sans-serif" font-size="78" font-weight="800">
    Certeiro
  </text>

  <text x="92" y="290" fill="#d4d4d8" font-family="Arial, Helvetica, sans-serif" font-size="31" font-weight="500">
    Solver para Termoo e Wordle.
  </text>
  <text x="92" y="332" fill="#d4d4d8" font-family="Arial, Helvetica, sans-serif" font-size="31" font-weight="500">
    Palpites inteligentes em segundos.
  </text>

  <g>
    <rect x="92" y="388" width="168" height="58" rx="18" fill="#052e2b" stroke="#10b981" stroke-width="2"/>
    <text x="176" y="425" fill="#a7f3d0" font-family="Arial, Helvetica, sans-serif" font-size="24" font-weight="700" text-anchor="middle">Termoo</text>
    <rect x="276" y="388" width="168" height="58" rx="18" fill="#1f2937" stroke="#facc15" stroke-width="2"/>
    <text x="360" y="425" fill="#fde68a" font-family="Arial, Helvetica, sans-serif" font-size="24" font-weight="700" text-anchor="middle">Wordle</text>
  </g>

  <text x="94" y="500" fill="#71717a" font-family="Arial, Helvetica, sans-serif" font-size="23" font-weight="500">
    Encontre a melhor primeira palavra e refine cada tentativa.
  </text>

  <g filter="url(#panel-shadow)">
    <rect x="758" y="116" width="354" height="394" rx="30" fill="#111827" stroke="#334155"/>

    <g transform="translate(790 154)">
      <rect width="44" height="44" rx="12" fill="#1f2937" stroke="#475569"/>
      <rect x="52" width="44" height="44" rx="12" fill="#facc15" stroke="#fde68a"/>
      <rect x="104" width="44" height="44" rx="12" fill="#1f2937" stroke="#475569"/>
      <rect x="156" width="44" height="44" rx="12" fill="#10b981" stroke="#a7f3d0"/>
      <rect x="208" width="44" height="44" rx="12" fill="#1f2937" stroke="#475569"/>
      <text x="22" y="30" fill="#e4e4e7" font-family="Arial, Helvetica, sans-serif" font-size="24" font-weight="700" text-anchor="middle">T</text>
      <text x="74" y="30" fill="#18181b" font-family="Arial, Helvetica, sans-serif" font-size="24" font-weight="700" text-anchor="middle">E</text>
      <text x="126" y="30" fill="#e4e4e7" font-family="Arial, Helvetica, sans-serif" font-size="24" font-weight="700" text-anchor="middle">R</text>
      <text x="178" y="30" fill="#ecfeff" font-family="Arial, Helvetica, sans-serif" font-size="24" font-weight="700" text-anchor="middle">M</text>
      <text x="230" y="30" fill="#e4e4e7" font-family="Arial, Helvetica, sans-serif" font-size="24" font-weight="700" text-anchor="middle">O</text>
    </g>

    <g transform="translate(790 216)">
      <rect width="44" height="44" rx="12" fill="#10b981" stroke="#a7f3d0"/>
      <rect x="52" width="44" height="44" rx="12" fill="#10b981" stroke="#a7f3d0"/>
      <rect x="104" width="44" height="44" rx="12" fill="#10b981" stroke="#a7f3d0"/>
      <rect x="156" width="44" height="44" rx="12" fill="#10b981" stroke="#a7f3d0"/>
      <rect x="208" width="44" height="44" rx="12" fill="#10b981" stroke="#a7f3d0"/>
      <text x="22" y="30" fill="#ecfeff" font-family="Arial, Helvetica, sans-serif" font-size="24" font-weight="700" text-anchor="middle">C</text>
      <text x="74" y="30" fill="#ecfeff" font-family="Arial, Helvetica, sans-serif" font-size="24" font-weight="700" text-anchor="middle">E</text>
      <text x="126" y="30" fill="#ecfeff" font-family="Arial, Helvetica, sans-serif" font-size="24" font-weight="700" text-anchor="middle">R</text>
      <text x="178" y="30" fill="#ecfeff" font-family="Arial, Helvetica, sans-serif" font-size="24" font-weight="700" text-anchor="middle">T</text>
      <text x="230" y="30" fill="#ecfeff" font-family="Arial, Helvetica, sans-serif" font-size="24" font-weight="700" text-anchor="middle">O</text>
    </g>

    <g transform="translate(776 284)">
      <rect width="320" height="166" rx="28" fill="#0f172a" stroke="#334155"/>
      <text x="26" y="40" fill="#94a3b8" font-family="Arial, Helvetica, sans-serif" font-size="18" font-weight="700">
        MELHOR PRIMEIRO PALPITE
      </text>
      <rect x="24" y="58" width="124" height="82" rx="20" fill="#052e2b" stroke="#10b981" stroke-width="2"/>
      <text x="42" y="82" fill="#a7f3d0" font-family="Arial, Helvetica, sans-serif" font-size="15" font-weight="700" letter-spacing="1.5">
        TERMOO
      </text>
      <text x="42" y="122" fill="#ecfeff" font-family="Arial, Helvetica, sans-serif" font-size="34" font-weight="800">
        seria
      </text>

      <text x="160" y="108" fill="#475569" font-family="Arial, Helvetica, sans-serif" font-size="26" font-weight="700">
        /
      </text>

      <rect x="174" y="58" width="122" height="82" rx="20" fill="#1f2937" stroke="#facc15" stroke-width="2"/>
      <text x="192" y="82" fill="#fde68a" font-family="Arial, Helvetica, sans-serif" font-size="15" font-weight="700" letter-spacing="1.5">
        WORDLE
      </text>
      <text x="192" y="122" fill="#ecfeff" font-family="Arial, Helvetica, sans-serif" font-size="34" font-weight="800">
        crane
      </text>
    </g>
  </g>
</svg>
